<svg width="135" height="135" viewBox="0 0 135 135" fill="none" xmlns="http://www.w3.org/2000/svg">
<path d="M64.6543 38.7508H82.1807V24.4424H90.3571M64.6543 46.1747H100.577M64.6543 56.8039H82.1807V65.7977H90.3571M64.6543 80.9238H103.03M64.6543 87.9912H82.1807V102.708H90.3571" stroke="#00ADD4" stroke-width="4.34167"/>
<path d="M22.6235 63.2043C23.0501 63.2802 23.4943 63.3205 23.9545 63.3205C23.494 63.2545 23.0503 63.2165 22.6235 63.2043Z" fill="#111111"/>
<path d="M54.8437 32.2762C51.7073 29.7692 50.488 26.8798 50.0267 24.638M50.0267 24.638C48.391 16.6895 62.1148 13.0979 64.6552 22.4647V78.9652M50.0267 24.638C44.3562 19.5991 31.8288 22.9449 30.4717 30.4845M40.0209 38.6944C40.5827 24.0191 20.9834 29.6469 27.9575 41.1448C18.9685 39.5867 17.3718 48.0121 20.9385 52.0772M31.7274 52.0772C26.7168 55.3032 22.981 54.4052 20.9385 52.0772M20.9385 52.0772C13.0668 52.0772 16.2712 63.3205 23.9545 63.3205C10.805 61.4356 11.3704 82.3581 26.0727 78.0228C19.6639 81.4156 18.6383 91.7649 27.9575 94.3834C26.9522 97.4621 29.9521 102.183 35.5062 102.183M43.0369 91.7649C27.9575 96.2887 37.382 113.082 49.8224 103.846M60.3779 96.4948C51.7319 95.7962 46.6181 103.126 51.7073 109.124C53.9552 111.773 64.6552 112.328 64.6552 102.183V78.9652M27.9575 74.3288C26.0727 66.1659 31.6548 64.1329 35.5062 64.9043C39.3575 65.6757 43.1796 61.1174 39.4555 56.3292M37.1936 74.3288C43.6022 72.4439 48.126 71.1245 47.749 64.9043M64.6552 78.9652C44.9733 77.0803 60.3779 61.0173 56.9213 52.9535M37.1936 44.66C49.8224 42.9636 50.231 56.5349 50.0267 58.4198M51.7073 36.5549C54.5975 37.1832 60.3779 40.1362 60.3779 46.9219M34.7434 83.9736C49.0047 78.0228 50.0267 90.0862 56.9213 90.0862" stroke="#00ADD4" stroke-width="4.34167"/>
<circle cx="97.938" cy="24.4961" r="5.35166" stroke="#00ADD4" stroke-width="4.34167"/>
<circle cx="108.116" cy="46.7158" r="5.35166" stroke="#00ADD4" stroke-width="4.34167"/>
<circle cx="97.938" cy="66.3194" r="5.35166" stroke="#00ADD4" stroke-width="4.34167"/>
<circle cx="109.059" cy="81.3643" r="5.35166" stroke="#00ADD4" stroke-width="4.34167"/>
<circle cx="97.938" cy="102.71" r="5.35166" stroke="#00ADD4" stroke-width="4.34167"/>
<rect x="2.17083" y="2.17083" width="123.309" height="123.309" rx="19.5375" stroke="#00ADD4" stroke-width="4.34167"/>
<path d="M132.408 20.3027V105.333C132.408 121.486 123.387 132 105.16 132H17.4258" stroke="#00ADD4" stroke-width="4.34167" stroke-linecap="round"/>
</svg>
