<svg width="100" height="100" viewBox="0 0 100 100" fill="none" xmlns="http://www.w3.org/2000/svg">
<path d="M90.4686 65.8233C90.4686 65.6602 90.4364 65.5051 90.388 65.3581V45.5651C90.388 44.7304 89.7114 44.0548 88.8776 44.0548C88.0439 44.0548 87.3673 44.7304 87.3673 45.5651V64.3139H67.7314L58.9692 49.3008L76.2952 39.8841C81.5735 37.0224 84.0817 31.3968 81.8856 27.3399L75.0023 14.691C74.1122 13.0477 72.5908 11.8686 70.6041 11.2816C67.7948 10.4509 64.4549 10.9191 61.4553 12.5594L15.0092 37.3598C14.552 37.6044 14.1342 38.1019 14.0969 38.6184C14.0596 39.135 14.1593 39.5307 14.4886 40.1117L16.726 44.386L10.032 47.6142C9.67049 47.7884 9.39359 48.0985 9.26169 48.4771C9.12978 48.8557 9.15395 49.2706 9.32814 49.6311L14.1835 59.6801C14.4443 60.2198 14.983 60.534 15.5449 60.534C15.7644 60.534 15.9879 60.4856 16.1983 60.3849L23.0836 57.0722C23.1612 57.0349 23.2307 56.9886 23.2981 56.9413L24.2225 58.7064C25.1116 60.3467 26.632 61.5228 28.6187 62.1068C29.5289 62.3756 30.4946 62.5065 31.4874 62.5065C33.5596 62.5065 35.7456 61.9306 37.7786 60.8169L56.3139 50.7427L65.5605 66.5835C65.8323 67.0477 66.3287 67.3327 66.8654 67.3327H87.3683V87.2525C87.3683 88.0863 88.0449 88.7629 88.8786 88.7629C89.7124 88.7629 90.389 88.0863 90.389 87.2525V66.2885C90.4353 66.1415 90.4686 65.9874 90.4686 65.8233ZM21.7746 54.3505L16.2487 57.0098L12.7064 49.6794L18.1286 47.0644L21.9156 54.3001C21.8683 54.3162 21.82 54.3283 21.7746 54.3505ZM36.3307 58.1657C34.052 59.4123 31.4884 59.8019 29.4715 59.2089C28.6348 58.9632 27.507 58.4265 26.8898 57.2887L17.5859 39.434L62.8921 15.2166C65.1728 13.9721 67.7374 13.5844 69.7502 14.1795C70.587 14.4262 71.7167 14.9659 72.3491 16.1319L79.2314 28.7808C80.6098 31.3263 78.6071 35.1949 74.8553 37.2289L36.3307 58.1657Z" fill="#00ADD4"/>
</svg>
