<svg width="79" height="79" viewBox="0 0 79 79" fill="none" xmlns="http://www.w3.org/2000/svg">
<path d="M71.4708 52.0008C71.4708 51.8719 71.4454 51.7494 71.4072 51.6333V35.9968C71.4072 35.3374 70.8726 34.8036 70.214 34.8036C69.5554 34.8036 69.0208 35.3374 69.0208 35.9968V50.8084H53.5084L46.5863 38.948L60.2739 31.5088C64.4437 29.2481 66.4252 24.8039 64.6903 21.5989L59.2525 11.6063C58.5493 10.3081 57.3474 9.37661 55.7779 8.91286C53.5586 8.2566 50.92 8.62649 48.5503 9.9223L11.8579 29.5146C11.4968 29.7079 11.1666 30.1009 11.1372 30.5089C11.1078 30.917 11.1865 31.2296 11.4467 31.6886L13.2142 35.0654L7.92593 37.6156C7.64035 37.7532 7.4216 37.9982 7.31739 38.2973C7.21319 38.5964 7.23228 38.9242 7.36989 39.2089L11.2056 47.1477C11.4117 47.574 11.8372 47.8222 12.2811 47.8222C12.4545 47.8222 12.6311 47.784 12.7974 47.7045L18.2367 45.0874C18.298 45.058 18.3529 45.0214 18.4062 44.984L19.1364 46.3785C19.8388 47.6743 21.04 48.6034 22.6094 49.0647C23.3285 49.2771 24.0914 49.3805 24.8757 49.3805C26.5128 49.3805 28.2397 48.9255 29.8458 48.0457L44.4887 40.0871L51.7934 52.6014C52.0082 52.9681 52.4004 53.1932 52.8243 53.1932H69.0216V68.9299C69.0216 69.5885 69.5562 70.1231 70.2148 70.1231C70.8734 70.1231 71.408 69.5885 71.408 68.9299V52.3683C71.4446 52.2522 71.4708 52.1305 71.4708 52.0008ZM17.2026 42.9373L12.8371 45.0381L10.0387 39.2471L14.3223 37.1813L17.314 42.8975C17.2766 42.9102 17.2384 42.9198 17.2026 42.9373ZM28.7019 45.9513C26.9017 46.9361 24.8765 47.2439 23.2832 46.7754C22.6221 46.5813 21.7312 46.1573 21.2436 45.2584L13.8935 31.1533L49.6854 12.0215C51.4872 11.0383 53.5132 10.7321 55.1034 11.2022C55.7644 11.3971 56.6569 11.8235 57.1564 12.7446L62.5934 22.7372C63.6824 24.7482 62.1003 27.8044 59.1364 29.4112L28.7019 45.9513Z" fill="#00ADD4"/>
</svg>
