<svg width="100" height="100" viewBox="0 0 100 100" fill="none" xmlns="http://www.w3.org/2000/svg">
<path d="M50.1316 82.0206C45.8757 82.0206 42.4139 78.5588 42.4139 74.3038C42.4139 70.0478 45.8757 66.5859 50.1316 66.5859C54.3915 66.5859 57.8563 70.0478 57.8563 74.3038C57.8563 78.5588 54.3915 82.0206 50.1316 82.0206ZM50.1316 69.5764C47.5248 69.5764 45.4034 71.6969 45.4034 74.3048C45.4034 76.9116 47.5238 79.0321 50.1316 79.0321C52.7434 79.0321 54.8669 76.9116 54.8669 74.3048C54.8669 71.6969 52.7434 69.5764 50.1316 69.5764Z" fill="#00ADD4"/>
<path d="M30.78 60.36C30.4711 60.36 30.1602 60.2653 29.8932 60.068C29.2285 59.5777 29.088 58.642 29.5793 57.9774C34.3823 51.4703 42.0661 47.5859 50.1325 47.5859C57.9529 47.5859 65.2341 51.0996 70.1118 57.227C70.626 57.8727 70.5194 58.8134 69.8727 59.3276C69.2279 59.8428 68.2873 59.7342 67.7721 59.0885C63.4663 53.6775 57.0361 50.5754 50.1325 50.5754C42.9051 50.5754 36.2895 53.9206 31.9838 59.7531C31.6898 60.1507 31.2374 60.36 30.78 60.36Z" fill="#00ADD4"/>
<path d="M18.9938 48.9373C18.659 48.9373 18.3212 48.8247 18.0422 48.5945C17.4064 48.0684 17.3168 47.1267 17.8429 46.49C25.8416 36.817 37.6099 31.2695 50.1306 31.2695C62.2696 31.2695 73.7928 36.529 81.7457 45.6977C82.2858 46.3215 82.22 47.2652 81.5962 47.8063C80.9734 48.3464 80.0288 48.2797 79.4877 47.6568C72.1028 39.1418 61.4037 34.259 50.1316 34.259C38.5058 34.259 27.5764 39.4109 20.1467 48.3952C19.8518 48.753 19.4243 48.9373 18.9938 48.9373Z" fill="#00ADD4"/>
<path d="M8.75005 38.6669C8.40229 38.6669 8.05352 38.5463 7.77052 38.3011C7.14773 37.76 7.08096 36.8154 7.62205 36.1926C18.3222 23.8679 33.8173 16.7988 50.1326 16.7988C66.109 16.7988 81.3959 23.6258 92.0731 35.5279C92.6241 36.1427 92.5723 37.0874 91.9585 37.6385C91.3447 38.1895 90.4 38.1387 89.848 37.5239C79.7368 26.2526 65.262 19.7883 50.1336 19.7883C34.6852 19.7883 20.0132 26.4817 9.88105 38.1527C9.58311 38.4925 9.16758 38.6669 8.75005 38.6669Z" fill="#00ADD4"/>
</svg>
