<svg width="83" height="83" viewBox="0 0 83 83" fill="none" xmlns="http://www.w3.org/2000/svg">
<rect width="83" height="83" rx="41.5" fill="#00ADD4"/>
<path d="M50.5511 28.1256V46.3308L54.0324 50.299V37.9297C54.0324 37.2839 54.6724 36.9084 55.1332 37.2839L60.0069 41.2518C60.1899 41.401 60.2986 41.6413 60.2986 41.8976V57.4418L64.2722 61.9709C64.5439 62.2808 64.5439 62.7835 64.2722 63.0934C64.0003 63.4031 63.5592 63.4031 63.2874 63.0934L49.5666 47.4527H33.4334L19.7127 63.0934C19.4408 63.4031 18.9997 63.4031 18.7279 63.0934C18.4562 62.7835 18.4562 62.2808 18.7279 61.9709L22.7014 57.4418V41.8976C22.7014 41.6413 22.8101 41.401 22.9931 41.2518L27.8669 37.2839C28.3276 36.9085 28.9677 37.2839 28.9677 37.9297V50.299L32.449 46.3308V28.1256L18.9348 21.1935C18.584 21.0135 18.4278 20.5437 18.5856 20.1439C18.7432 19.7441 19.1554 19.566 19.5061 19.7459L33.2945 26.8187H49.7054L63.4938 19.7459C63.8445 19.566 64.2567 19.7441 64.4143 20.1439C64.5722 20.5437 64.4159 21.0135 64.0652 21.1935L50.5511 28.1256ZM45.6773 45.8662H49.1586V28.4062H33.8412V45.8662H37.3225V34.7549C37.3225 34.3168 37.6342 33.9614 38.0186 33.9614H44.9812C45.3656 33.9614 45.6773 34.3168 45.6773 34.7549V45.8662ZM38.7147 35.5492V45.8662H44.2846V35.5492H38.7147ZM55.4244 39.4724V51.887L58.9057 55.8549V42.307L55.4244 39.4724ZM27.5747 39.4724L24.0934 42.3068V55.8547L27.5747 51.8867V39.4724Z" fill="white"/>
</svg>
