<svg width="100" height="100" viewBox="0 0 100 100" fill="none" xmlns="http://www.w3.org/2000/svg">
<path d="M89.4632 12.7949H36.3407V34.6988H12.4421V77.551H25.791L39.5265 92.0779L39.5334 77.551H68V55.6481H89.4632V12.7949ZM65.0115 74.5625H36.547L36.542 84.5693L27.0794 74.5625H15.4325V37.6893H36.3417V55.6491H47.8292V69.1047L61.5388 55.6491H65.0115V74.5625ZM86.4737 52.6596H60.3161L50.8176 61.9818V52.6596H39.3302V15.7844H86.4737V52.6596Z" fill="#00ADD4"/>
<path d="M50.438 29.246C50.4429 29.246 50.4479 29.246 50.4529 29.246C52.8455 29.236 54.7866 27.2799 54.7776 24.8873C54.7736 23.7274 54.3183 22.6382 53.4942 21.8211C52.6701 21.004 51.567 20.5635 50.419 20.5605C49.2581 20.5645 48.169 21.0199 47.3518 21.845C46.5347 22.6691 46.0873 23.7603 46.0933 24.9192C46.1033 27.3088 48.0504 29.246 50.438 29.246ZM49.4744 23.9506C49.7285 23.6935 50.0683 23.552 50.43 23.551C50.432 23.551 50.434 23.551 50.436 23.551C50.7947 23.551 51.1335 23.6905 51.3886 23.9436C51.6447 24.1987 51.7862 24.5375 51.7882 24.8983C51.7902 25.6447 51.1863 26.2535 50.4409 26.2575C50.4389 26.2575 50.438 26.2575 50.436 26.2575C49.6916 26.2575 49.0857 25.6536 49.0817 24.9082C49.0807 24.5465 49.2193 24.2067 49.4744 23.9506Z" fill="#00ADD4"/>
<path d="M63.8975 29.2453C63.9024 29.2453 63.9074 29.2453 63.9124 29.2453C65.0733 29.2403 66.1615 28.7839 66.9786 27.9608C67.7957 27.1377 68.2431 26.0456 68.2371 24.8856C68.2331 23.7267 67.7778 22.6385 66.9547 21.8214C66.1316 21.0033 65.0494 20.5469 63.8805 20.5609C62.7186 20.5648 61.6285 21.0212 60.8104 21.8453C59.9932 22.6684 59.5468 23.7606 59.5518 24.9195C59.5628 27.3081 61.5099 29.2453 63.8975 29.2453ZM62.9339 23.9509C63.189 23.6938 63.5288 23.5523 63.8925 23.5503C63.8945 23.5503 63.8965 23.5503 63.8985 23.5503C64.2562 23.5503 64.594 23.6898 64.8481 23.943C65.1042 24.1971 65.2457 24.5369 65.2477 24.8976V24.8996C65.2487 25.2603 65.1102 25.6001 64.8561 25.8562C64.602 26.1133 64.2622 26.2548 63.9014 26.2568C63.8994 26.2568 63.8985 26.2568 63.8965 26.2568C63.1521 26.2568 62.5462 25.6529 62.5422 24.9076C62.5412 24.5458 62.6798 24.206 62.9339 23.9509Z" fill="#00ADD4"/>
</svg>
