<svg width="100" height="100" viewBox="0 0 100 100" fill="none" xmlns="http://www.w3.org/2000/svg">
<path d="M77.6398 24.5609C75.0325 24.5611 72.4528 25.0954 70.0598 26.1309C69.4015 19.8834 66.4407 14.1048 61.7543 9.92125C57.0679 5.73769 50.9917 3.44888 44.7098 3.50087C30.7098 3.50087 19.2598 14.6709 19.2598 28.4009C19.2597 29.9447 19.407 31.485 19.6998 33.0009C17.7118 32.592 15.6598 32.608 13.6784 33.0478C11.697 33.4876 9.83099 34.3413 8.20268 35.553C6.57437 36.7646 5.22059 38.3067 4.2301 40.0782C3.23961 41.8498 2.6348 43.8107 2.45533 45.8323C2.27587 47.854 2.52579 49.8908 3.18873 51.8091C3.85166 53.7274 4.91262 55.4839 6.30204 56.9634C7.69145 58.4429 9.37792 59.612 11.2509 60.3939C13.1238 61.1759 15.1409 61.5531 17.1698 61.5009H17.6698C18.0677 61.5009 18.4492 61.3428 18.7305 61.0615C19.0118 60.7802 19.1698 60.3987 19.1698 60.0009C19.1698 59.603 19.0118 59.2215 18.7305 58.9402C18.4492 58.6589 18.0677 58.5009 17.6698 58.5009H17.1698C15.6477 58.546 14.1319 58.2852 12.7124 57.7338C11.2929 57.1825 9.99845 56.3519 8.9058 55.2911C7.81316 54.2304 6.94452 52.9612 6.35134 51.5586C5.75817 50.156 5.45253 48.6487 5.45253 47.1259C5.45253 45.603 5.75817 44.0957 6.35134 42.6931C6.94452 41.2906 7.81316 40.0213 8.9058 38.9606C9.99845 37.8999 11.2929 37.0692 12.7124 36.5179C14.1319 35.9666 15.6477 35.7057 17.1698 35.7509C18.562 35.7539 19.943 36.0009 21.2498 36.4809C21.5122 36.5771 21.7962 36.5981 22.0699 36.5416C22.3436 36.485 22.596 36.3531 22.7987 36.1608C23.0015 35.9685 23.1465 35.7233 23.2173 35.453C23.2882 35.1827 23.2821 34.8979 23.1998 34.6309C22.5803 32.6086 22.2635 30.5059 22.2598 28.3909C22.2598 16.3109 32.3298 6.49087 44.7098 6.49087C57.0898 6.49087 67.1598 16.3209 67.1598 28.3509C67.1598 28.3509 67.1598 28.4909 67.1598 28.5309C67.1594 28.7964 67.2293 29.0572 67.3627 29.2868C67.496 29.5164 67.6879 29.7065 67.9187 29.8377C68.1496 29.9689 68.4111 30.0365 68.6766 30.0335C68.942 30.0305 69.202 29.9572 69.4298 29.8209C71.9172 28.3431 74.7566 27.5624 77.6498 27.5609C79.7024 27.487 81.7491 27.8229 83.6704 28.5489C85.5917 29.2748 87.3491 30.3764 88.8399 31.7891C90.3307 33.2019 91.5251 34.8975 92.3532 36.7771C93.1814 38.6566 93.6268 40.6823 93.6633 42.7358C93.6999 44.7894 93.3269 46.8296 92.5661 48.7374C91.8053 50.6452 90.672 52.3823 89.2324 53.8472C87.7928 55.3121 86.0757 56.4754 84.1814 57.2693C82.2872 58.0632 80.2537 58.4717 78.1998 58.4709H77.9598H72.0898C71.692 58.4709 71.3105 58.6289 71.0292 58.9102C70.7479 59.1915 70.5898 59.573 70.5898 59.9709C70.5898 60.3687 70.7479 60.7502 71.0292 61.0315C71.3105 61.3128 71.692 61.4709 72.0898 61.4709H78.2398C78.3561 61.4848 78.4736 61.4848 78.5898 61.4709C83.4818 61.3449 88.1233 59.2808 91.4933 55.7326C94.8633 52.1844 96.6858 47.4428 96.5598 42.5509C96.4339 37.6589 94.3697 33.0174 90.8215 29.6474C87.2734 26.2774 82.5318 24.4549 77.6398 24.5809V24.5609Z" fill="#00ADD4"/>
<path d="M73.9398 77.94L64.4998 87.38V43C64.4998 42.6022 64.3418 42.2206 64.0605 41.9393C63.7792 41.658 63.3976 41.5 62.9998 41.5C62.602 41.5 62.2205 41.658 61.9392 41.9393C61.6579 42.2206 61.4998 42.6022 61.4998 43V87.38L52.0598 77.94C51.9225 77.7926 51.7569 77.6744 51.5729 77.5924C51.3889 77.5105 51.1903 77.4664 50.9889 77.4628C50.7875 77.4593 50.5874 77.4963 50.4006 77.5718C50.2138 77.6472 50.0442 77.7595 49.9017 77.9019C49.7593 78.0444 49.647 78.214 49.5716 78.4008C49.4961 78.5876 49.4591 78.7876 49.4626 78.989C49.4662 79.1904 49.5103 79.3891 49.5923 79.5731C49.6742 79.7571 49.7924 79.9227 49.9398 80.06L61.9398 92.06C62.2211 92.3409 62.6023 92.4987 62.9998 92.4987C63.3973 92.4987 63.7786 92.3409 64.0598 92.06L76.0598 80.06C76.3248 79.7756 76.469 79.3996 76.4622 79.011C76.4553 78.6224 76.2979 78.2516 76.0231 77.9768C75.7482 77.7019 75.3775 77.5445 74.9889 77.5377C74.6003 77.5308 74.2242 77.675 73.9398 77.94Z" fill="#00ADD4"/>
<path d="M50.0602 53.9406L38.0602 41.9406C37.7789 41.6597 37.3977 41.502 37.0002 41.502C36.6027 41.502 36.2214 41.6597 35.9402 41.9406L23.9402 53.9406C23.6752 54.225 23.531 54.6011 23.5378 54.9897C23.5447 55.3783 23.7021 55.7491 23.9769 56.0239C24.2518 56.2987 24.6225 56.4561 25.0111 56.463C25.3997 56.4698 25.7758 56.3256 26.0602 56.0606L35.5002 46.6206V91.0006C35.5002 91.3985 35.6582 91.78 35.9395 92.0613C36.2208 92.3426 36.6024 92.5006 37.0002 92.5006C37.398 92.5006 37.7795 92.3426 38.0608 92.0613C38.3421 91.78 38.5002 91.3985 38.5002 91.0006V46.6206L47.9402 56.0606C48.2245 56.3256 48.6006 56.4698 48.9892 56.463C49.3778 56.4561 49.7486 56.2987 50.0234 56.0239C50.2983 55.7491 50.4557 55.3783 50.4625 54.9897C50.4694 54.6011 50.3251 54.225 50.0602 53.9406Z" fill="#00ADD4"/>
<path d="M57.59 24.52C57.7508 24.8532 58.0289 25.1152 58.3711 25.2557C58.7133 25.3962 59.0954 25.4054 59.4439 25.2813C59.7924 25.1573 60.0828 24.9089 60.2593 24.5838C60.4357 24.2587 60.4859 23.8798 60.4 23.52C59.2614 20.333 57.1765 17.5699 54.4243 15.6004C51.672 13.631 48.3839 12.5493 45 12.5C44.6022 12.5 44.2206 12.658 43.9393 12.9393C43.658 13.2206 43.5 13.6022 43.5 14C43.5 14.3978 43.658 14.7794 43.9393 15.0607C44.2206 15.342 44.6022 15.5 45 15.5C47.767 15.544 50.4548 16.4311 52.7044 18.0428C54.954 19.6545 56.6584 21.9141 57.59 24.52Z" fill="#00ADD4"/>
</svg>
