<svg width="83" height="83" viewBox="0 0 83 83" fill="none" xmlns="http://www.w3.org/2000/svg">
<rect width="83" height="83" rx="41.5" fill="#00ADD4"/>
<path d="M58.8736 26.2922C58.872 26.2646 58.8693 26.2376 58.8655 26.2105C58.8612 26.184 58.8563 26.158 58.8498 26.1326C58.8433 26.1072 58.8358 26.0818 58.8266 26.0574C58.8174 26.0325 58.8076 26.0082 58.7957 25.9844C58.7844 25.9611 58.7725 25.939 58.759 25.9173C58.7454 25.8946 58.7308 25.873 58.7151 25.8519C58.6995 25.8313 58.6832 25.8113 58.6659 25.7924C58.6486 25.7734 58.6308 25.755 58.6118 25.7377C58.5923 25.7199 58.5723 25.7031 58.5507 25.6874C58.5301 25.6723 58.5096 25.6577 58.4874 25.6447C58.4647 25.6306 58.4414 25.6182 58.4176 25.6068C58.3938 25.5955 58.37 25.5852 58.3451 25.576C58.3203 25.5668 58.2954 25.5592 58.2694 25.5527C58.2429 25.5457 58.2158 25.5403 58.1883 25.536C58.1742 25.5338 58.1612 25.5289 58.1472 25.5278C51.7013 24.883 46.6602 23.5723 41.4531 19.0392C41.115 18.745 40.6017 18.7807 40.3085 19.1182C40.2895 19.1399 40.2755 19.1642 40.2593 19.1875C35.0229 23.7054 30.6499 24.9079 24.4475 25.5273C24.0326 25.569 23.7167 25.9179 23.7167 26.3349V45.3388C23.7167 45.4107 23.7264 45.4822 23.7453 45.5514C27.0359 57.6869 40.3069 63.4523 40.87 63.6919C40.9717 63.7352 41.0799 63.7568 41.1875 63.7568C41.2941 63.7568 41.4017 63.7357 41.5018 63.6935C42.0719 63.4544 55.4949 57.6896 58.7855 45.5519C58.7968 45.5092 58.8055 45.4659 58.8098 45.4216L58.8736 44.7935C58.8763 44.7665 58.878 44.7389 58.878 44.7113V26.3355C58.878 26.3198 58.8747 26.3063 58.8736 26.2922ZM57.2021 45.189C54.3622 55.5204 43.2177 61.1116 41.1891 62.0534C39.1784 61.1089 28.1957 55.5302 25.339 45.2285V27.0647C31.2185 26.4139 35.7786 25.0664 40.9468 20.7281C46.0684 24.9761 51.2204 26.3939 57.2546 27.062V44.6691L57.2021 45.189Z" fill="white"/>
<path d="M48.8705 36.3424H48.0915C47.6631 32.7489 44.5759 29.9512 40.838 29.9512C37.1001 29.9512 34.0129 32.7489 33.585 36.3424H32.6427C32.1948 36.3424 31.8313 36.7054 31.8313 37.1538V49.0546C31.8313 49.503 32.1948 49.866 32.6427 49.866H48.871C49.3189 49.866 49.6824 49.503 49.6824 49.0546V37.1538C49.6819 36.7054 49.3184 36.3424 48.8705 36.3424ZM40.8375 31.574C43.6785 31.574 46.0327 33.6469 46.4508 36.3424H35.2241C35.6428 33.6469 37.9964 31.574 40.8375 31.574ZM48.059 37.9652V48.2432H33.4536V37.9652H48.059Z" fill="white"/>
</svg>
