<svg width="100" height="100" viewBox="0 0 100 100" fill="none" xmlns="http://www.w3.org/2000/svg">
<path d="M64.8201 40.86C64.1966 40.8599 63.5789 40.9787 63.0001 41.21V40.74C62.9974 39.3166 62.4308 37.9523 61.4243 36.9458C60.4178 35.9393 59.0535 35.3727 57.6301 35.37H57.3801C56.5135 35.3774 55.662 35.5972 54.9001 36.01C54.6496 34.7995 53.9899 33.7121 53.032 32.9308C52.074 32.1495 50.8762 31.722 49.6401 31.72C48.7259 31.7191 47.8246 31.935 47.0101 32.35V24.59H56.5101C56.9079 24.59 57.2894 24.432 57.5707 24.1507C57.852 23.8694 58.0101 23.4879 58.0101 23.09V8.50003C58.0101 8.30221 57.9709 8.10633 57.8949 7.92369C57.8189 7.74105 57.7075 7.57524 57.5672 7.43582C57.4268 7.2964 57.2603 7.18612 57.0772 7.11133C56.894 7.03654 56.6979 6.99871 56.5001 7.00003H25.5001C25.1022 7.00003 24.7207 7.15807 24.4394 7.43937C24.1581 7.72068 24.0001 8.10221 24.0001 8.50003V23.09C24.0001 23.4879 24.1581 23.8694 24.4394 24.1507C24.7207 24.432 25.1022 24.59 25.5001 24.59H36.0001V61.29L27.2101 54.09C25.4454 52.6135 23.1933 51.8485 20.8944 51.9447C18.5955 52.0409 16.4152 52.9913 14.7801 54.61C14.517 54.87 14.3593 55.2179 14.3372 55.5871C14.315 55.9562 14.43 56.3205 14.6601 56.61L36.0001 83.89V96.5C36.0001 96.8979 36.1581 97.2794 36.4394 97.5607C36.7207 97.842 37.1022 98 37.5001 98C37.8979 98 38.2794 97.842 38.5607 97.5607C38.842 97.2794 39.0001 96.8979 39.0001 96.5V83.37C38.9987 83.0363 38.8861 82.7126 38.6801 82.45L17.9201 55.89C19.0407 55.1765 20.3598 54.8393 21.6853 54.9274C23.0109 55.0156 24.2737 55.5245 25.2901 56.38L36.5501 65.61C36.7691 65.7893 37.0344 65.9029 37.3153 65.9378C37.5962 65.9727 37.8812 65.9274 38.1375 65.8071C38.3937 65.6868 38.6107 65.4965 38.7633 65.2581C38.9159 65.0198 38.998 64.7431 39.0001 64.46V19.61C39.0027 18.9823 39.2532 18.381 39.6971 17.9371C40.141 17.4932 40.7423 17.2427 41.3701 17.24H41.6201C42.2495 17.24 42.8534 17.4894 43.2994 17.9336C43.7455 18.3778 43.9974 18.9806 44.0001 19.61V51.5C44.0001 51.8979 44.1581 52.2794 44.4394 52.5607C44.7207 52.842 45.1022 53 45.5001 53C45.8979 53 46.2794 52.842 46.5607 52.5607C46.842 52.2794 47.0001 51.8979 47.0001 51.5V37C47.0658 36.3574 47.3748 35.7643 47.8638 35.3422C48.3528 34.9202 48.9847 34.7011 49.6301 34.73C50.2578 34.7327 50.8591 34.9832 51.303 35.4271C51.7469 35.871 51.9974 36.4723 52.0001 37.1V40.5C52.0001 40.5 52.0001 40.58 52.0001 40.62C52.0001 40.66 52.0001 40.7 52.0001 40.74V51.5C52.0001 51.8979 52.1581 52.2794 52.4394 52.5607C52.7207 52.842 53.1022 53 53.5001 53C53.8979 53 54.2794 52.842 54.5607 52.5607C54.842 52.2794 55.0001 51.8979 55.0001 51.5V40.75C55.0027 40.1223 55.2532 39.521 55.6971 39.0771C56.141 38.6332 56.7423 38.3827 57.3701 38.38H57.6201C58.2495 38.38 58.8534 38.6294 59.2994 39.0736C59.7455 39.5178 59.9974 40.1206 60.0001 40.75V51.5C60.0001 51.8979 60.1581 52.2794 60.4394 52.5607C60.7207 52.842 61.1022 53 61.5001 53C61.8979 53 62.2794 52.842 62.5607 52.5607C62.842 52.2794 63.0001 51.8979 63.0001 51.5V46C62.9649 45.7375 62.9853 45.4705 63.06 45.2164C63.1347 44.9622 63.262 44.7266 63.4336 44.5248C63.6052 44.3231 63.8173 44.1596 64.0562 44.0451C64.295 43.9305 64.5553 43.8675 64.8201 43.86C65.3914 43.8599 65.9399 44.0841 66.3476 44.4843C66.7553 44.8846 66.9896 45.4288 67.0001 46V71.89C67.0043 73.9339 66.6035 75.9583 65.8208 77.8464C65.0381 79.7344 63.8891 81.4486 62.4401 82.89C62.2946 83.0351 62.1805 83.2084 62.1049 83.3994C62.0292 83.5903 61.9935 83.7947 62.0001 84V95.5C62.0001 95.8979 62.1581 96.2794 62.4394 96.5607C62.7207 96.842 63.1022 97 63.5001 97C63.8979 97 64.2794 96.842 64.5607 96.5607C64.842 96.2794 65.0001 95.8979 65.0001 95.5V84.57C68.225 81.1371 70.014 76.6002 70.0001 71.89V46C69.9895 44.6332 69.4391 43.3259 68.4688 42.3631C67.4985 41.4002 66.187 40.86 64.8201 40.86ZM41.6301 14.23H41.3801C39.9532 14.23 38.5848 14.7969 37.5758 15.8058C36.5669 16.8147 36.0001 18.1832 36.0001 19.61V21.61H27.0001V10H55.0001V21.59H47.0001V19.59C46.9948 18.1684 46.427 16.8066 45.4208 15.8022C44.4146 14.7979 43.0517 14.2327 41.6301 14.23Z" fill="#00ADD4"/>
<path d="M79.5 13H64.5C64.1022 13 63.7206 13.158 63.4393 13.4393C63.158 13.7206 63 14.1022 63 14.5C63 14.8978 63.158 15.2794 63.4393 15.5607C63.7206 15.842 64.1022 16 64.5 16H79.5C79.8978 16 80.2794 15.842 80.5607 15.5607C80.842 15.2794 81 14.8978 81 14.5C81 14.1022 80.842 13.7206 80.5607 13.4393C80.2794 13.158 79.8978 13 79.5 13Z" fill="#00ADD4"/>
<path d="M64.67 22.0002C64.3857 21.7353 64.0096 21.591 63.621 21.5979C63.2324 21.6047 62.8616 21.7622 62.5868 22.037C62.312 22.3118 62.1546 22.6826 62.1477 23.0712C62.1408 23.4598 62.2851 23.8359 62.55 24.1202L75.92 37.5202C76.2109 37.7343 76.5693 37.8361 76.9293 37.8072C77.2893 37.7782 77.6267 37.6203 77.8797 37.3625C78.1326 37.1047 78.284 36.7643 78.3061 36.4038C78.3283 36.0434 78.2196 35.687 78 35.4002L64.67 22.0002Z" fill="#00ADD4"/>
<path d="M21.0598 26.9406C20.7786 26.6597 20.3973 26.502 19.9998 26.502C19.6023 26.502 19.2211 26.6597 18.9398 26.9406L8.93982 36.9406C8.79244 37.078 8.67424 37.2436 8.59226 37.4276C8.51027 37.6116 8.46619 37.8102 8.46264 38.0116C8.45908 38.213 8.49613 38.4131 8.57157 38.5998C8.64702 38.7866 8.7593 38.9563 8.90174 39.0987C9.04418 39.2411 9.21385 39.3534 9.40062 39.4289C9.5874 39.5043 9.78746 39.5414 9.98886 39.5378C10.1903 39.5343 10.3889 39.4902 10.5729 39.4082C10.7569 39.3262 10.9225 39.208 11.0598 39.0606L21.0598 29.0606C21.3407 28.7794 21.4985 28.3981 21.4985 28.0006C21.4985 27.6031 21.3407 27.2219 21.0598 26.9406Z" fill="#00ADD4"/>
</svg>
