<svg width="80" height="79" viewBox="0 0 80 79" fill="none" xmlns="http://www.w3.org/2000/svg">
<path d="M19.0105 5.49333C13.9553 5.49333 9.84179 9.60686 9.84179 14.6621C9.84179 19.7174 13.9553 23.8309 19.0105 23.8309C23.6666 23.8309 27.5151 20.3392 28.0953 15.8391L39.1467 15.8391L39.1467 38.0307L28.0953 38.0307C27.5151 33.5298 23.6666 30.0381 19.0105 30.0381C13.9553 30.0381 9.8418 34.1516 9.8418 39.2069C9.8418 44.2621 13.9553 48.3757 19.0105 48.3757C23.6666 48.3757 27.5151 44.884 28.0953 40.3831L39.1467 40.3831L39.1467 62.5754L28.0953 62.5754C27.5151 58.0745 23.6666 54.5828 19.0105 54.5828C13.9553 54.5828 9.8418 58.6963 9.8418 63.7516C9.8418 68.8077 13.9553 72.9204 19.0105 72.9204C23.6666 72.9204 27.5151 69.4287 28.0953 64.9278L52.5504 64.9278C53.1307 69.4287 56.9783 72.9204 61.6344 72.9204C66.6897 72.9204 70.8031 68.8069 70.8031 63.7516C70.8031 58.6963 66.6897 54.5828 61.6344 54.5828C56.9783 54.5828 53.1307 58.0745 52.5504 62.5754L41.499 62.5754L41.499 40.3831L52.5504 40.3831C53.1307 44.884 56.9783 48.3757 61.6344 48.3757C66.6897 48.3757 70.8031 44.2621 70.8031 39.2069C70.8031 34.1516 66.6896 30.0381 61.6344 30.0381C56.9783 30.0381 53.1307 33.5298 52.5504 38.0307L41.499 38.0307L41.499 14.6621C41.499 14.0129 40.9721 13.4859 40.3229 13.4859L28.0953 13.4859C27.5151 8.98505 23.6666 5.49333 19.0105 5.49333ZM19.0105 46.0233C15.2522 46.0233 12.1942 42.966 12.1942 39.2069C12.1942 35.4478 15.2514 32.3905 19.0105 32.3905C22.7696 32.3905 25.8268 35.4478 25.8268 39.2069C25.8268 42.9652 22.7688 46.0233 19.0105 46.0233ZM19.0105 70.568C15.2522 70.568 12.1942 67.5099 12.1942 63.7516C12.1942 59.9933 15.2514 56.9352 19.0105 56.9352C22.7696 56.9352 25.8269 59.9925 25.8269 63.7516C25.8269 67.5107 22.7688 70.568 19.0105 70.568ZM61.6344 56.9352C65.3935 56.9352 68.4508 59.9925 68.4508 63.7516C68.4508 67.5107 65.3935 70.568 61.6344 70.568C57.8762 70.568 54.8189 67.5099 54.8189 63.7516C54.8189 59.9933 57.8762 56.9352 61.6344 56.9352ZM61.6344 32.3905C65.3935 32.3905 68.4508 35.4478 68.4508 39.2069C68.4508 42.9652 65.3935 46.0233 61.6344 46.0233C57.8762 46.0233 54.8189 42.966 54.8189 39.2069C54.8181 35.4478 57.8762 32.3905 61.6344 32.3905ZM25.8268 14.6621C25.8268 18.4204 22.7688 21.4778 19.0105 21.4778C15.2522 21.4778 12.1942 18.4204 12.1942 14.6621C12.1942 10.903 15.2514 7.84571 19.0105 7.84571C22.7696 7.84571 25.8268 10.903 25.8268 14.6621Z" fill="#00ADD4"/>
</svg>
