<svg width="100" height="100" viewBox="0 0 100 100" fill="none" xmlns="http://www.w3.org/2000/svg">
<path d="M88.6162 13.6152H11.032C10.206 13.6152 9.53732 14.2839 9.53732 15.11V84.5389C9.53732 85.364 10.206 86.0336 11.032 86.0336H88.6162C89.4423 86.0336 90.1109 85.364 90.1109 84.5389V15.11C90.1109 14.2839 89.4423 13.6152 88.6162 13.6152ZM87.1215 83.0441H12.5268V16.6047H87.1215V83.0441Z" fill="#00ADD4"/>
<path d="M49.8221 72.1514C61.5148 72.1514 71.1309 63.1163 72.0686 51.6627C72.1174 51.5153 72.1503 51.3598 72.1503 51.1964C72.1503 51.1017 72.1393 51.01 72.1224 50.9204C72.1403 50.5576 72.1503 50.1929 72.1503 49.8262C72.1503 37.5147 62.1337 27.498 49.8221 27.498C37.5116 27.498 27.4969 37.5147 27.4969 49.8262C27.4979 62.1368 37.5126 72.1514 49.8221 72.1514ZM69.1549 49.7017H51.3168V30.5632C61.2418 31.3285 69.0901 39.5993 69.1549 49.7017ZM48.3274 30.5632V51.1964C48.3274 52.0225 48.996 52.6911 49.8221 52.6911H68.9247C67.5326 61.9953 59.5099 69.162 49.8221 69.162C39.1607 69.162 30.4864 60.4876 30.4864 49.8262C30.4874 39.6671 38.3646 31.3315 48.3274 30.5632Z" fill="#00ADD4"/>
</svg>
