<svg width="80" height="79" viewBox="0 0 80 79" fill="none" xmlns="http://www.w3.org/2000/svg">
<path d="M72.1369 52.0014C72.1369 51.8725 72.1114 51.75 72.0732 51.6338V35.9975C72.0732 35.3381 71.5387 34.8044 70.88 34.8044C70.2214 34.8044 69.6868 35.3381 69.6868 35.9975V50.809H54.1745L47.2523 38.9487L60.9399 31.5096C65.1097 29.2489 67.0912 24.8047 65.3563 21.5998L59.9185 11.6072C59.2153 10.3091 58.0134 9.37758 56.4439 8.91383C54.2246 8.25758 51.586 8.62747 49.2163 9.92327L12.5239 29.5154C12.1628 29.7087 11.8327 30.1016 11.8032 30.5097C11.7738 30.9178 11.8526 31.2304 12.1127 31.6894L13.8802 35.0661L8.59194 37.6163C8.30637 37.7539 8.08762 37.9989 7.98341 38.298C7.8792 38.5971 7.8983 38.9248 8.03591 39.2096L11.8716 47.1483C12.0777 47.5746 12.5032 47.8228 12.9471 47.8228C13.1205 47.8228 13.2971 47.7846 13.4634 47.7051L18.9028 45.088C18.964 45.0586 19.0189 45.022 19.0722 44.9846L19.8024 46.3791C20.5048 47.6749 21.706 48.604 23.2754 49.0653C23.9945 49.2777 24.7574 49.3811 25.5417 49.3811C27.1788 49.3811 28.9057 48.9261 30.5118 48.0463L45.1547 40.0878L52.4594 52.6019C52.6742 52.9686 53.0664 53.1937 53.4904 53.1937H69.6876V68.9303C69.6876 69.5889 70.2222 70.1235 70.8808 70.1235C71.5395 70.1235 72.074 69.5889 72.074 68.9303V52.3689C72.1106 52.2527 72.1369 52.131 72.1369 52.0014ZM17.8687 42.9379L13.5031 45.0387L10.7047 39.2478L14.9883 37.182L17.98 42.8981C17.9426 42.9109 17.9044 42.9204 17.8687 42.9379ZM29.3679 45.9519C27.5678 46.9367 25.5425 47.2445 23.9492 46.776C23.2882 46.5819 22.3972 46.1579 21.9096 45.2591L14.5595 31.154L50.3515 12.0225C52.1532 11.0393 54.1792 10.733 55.7694 11.2032C56.4304 11.398 57.3229 11.8244 57.8225 12.7455L63.2595 22.7381C64.3485 24.749 62.7663 27.8051 59.8024 29.412L29.3679 45.9519Z" fill="#00ADD4"/>
</svg>
