<svg width="83" height="83" viewBox="0 0 83 83" fill="none" xmlns="http://www.w3.org/2000/svg">
<rect width="83" height="83" rx="41.5" fill="#00ADD4"/>
<path fill-rule="evenodd" clip-rule="evenodd" d="M20.8 23.3V59.7H29.2V23.3H20.8ZM20.5 22C19.9477 22 19.5 22.4477 19.5 23V60C19.5 60.5523 19.9477 61 20.5 61H29.5C30.0523 61 30.5 60.5523 30.5 60V39H33.5C34.0523 39 34.5 38.5523 34.5 38V34.5399L45.8546 41.7491C46.1576 41.9415 46.5593 41.8518 46.7517 41.5487C46.9441 41.2457 46.8544 40.844 46.5514 40.6516L36.075 34H46.85C47.209 34 47.5 33.709 47.5 33.35C47.5 32.991 47.209 32.7 46.85 32.7H36.9474L46.9513 26.3484C47.2543 26.156 47.344 25.7543 47.1516 25.4513C46.9592 25.1482 46.5575 25.0585 46.2545 25.2509L34.7518 32.5541C34.6883 32.5945 34.6341 32.6441 34.5899 32.7H34.5V29C34.5 28.4477 34.0523 28 33.5 28H30.5V23C30.5 22.4477 30.0523 22 29.5 22H20.5ZM30.8 29.3V37.7H33.2V29.3H30.8ZM25.7 28C25.7 28.3866 25.3866 28.7 25 28.7C24.6134 28.7 24.3 28.3866 24.3 28C24.3 27.6134 24.6134 27.3 25 27.3C25.3866 27.3 25.7 27.6134 25.7 28ZM27 28C27 29.1046 26.1046 30 25 30C23.8954 30 23 29.1046 23 28C23 26.8954 23.8954 26 25 26C26.1046 26 27 26.8954 27 28ZM53.8 23.3V59.7H62.2V23.3H53.8ZM53.5 22C52.9477 22 52.5 22.4477 52.5 23V60C52.5 60.5523 52.9477 61 53.5 61H62.5C63.0523 61 63.5 60.5523 63.5 60V23C63.5 22.4477 63.0523 22 62.5 22H53.5ZM58 28.7C58.3866 28.7 58.7 28.3866 58.7 28C58.7 27.6134 58.3866 27.3 58 27.3C57.6134 27.3 57.3 27.6134 57.3 28C57.3 28.3866 57.6134 28.7 58 28.7ZM58 30C59.1046 30 60 29.1046 60 28C60 26.8954 59.1046 26 58 26C56.8954 26 56 26.8954 56 28C56 29.1046 56.8954 30 58 30Z" fill="white"/>
</svg>
