<svg width="80" height="79" viewBox="0 0 80 79" fill="none" xmlns="http://www.w3.org/2000/svg">
<g clip-path="url(#clip0_1_6069)">
<path d="M0.333008 35.4382L0.860277 47.884L60.8122 53.7338M0.333008 35.4382L60.8122 39.5039M0.333008 35.4382L37.0466 26L79.3329 28.178M60.8122 53.7338V39.5039M60.8122 53.7338L79.3329 38.8523V28.178M60.8122 39.5039L79.3329 28.178" stroke="#00ADD4" stroke-width="1.36095"/>
<path d="M38.6367 46.5L54.5963 48.0704M54.5963 50.0347L38.6367 48.5567" stroke="#00ADD4" stroke-width="1.36095"/>
<path d="M3.125 37.0508L3.52755 46.3185" stroke="#00ADD4" stroke-width="1.36095"/>
<path d="M5.91113 41.2121V38.1641L24.0748 39.6053V42.8411L5.91113 41.2121Z" stroke="#00ADD4" stroke-width="1.36095"/>
<path d="M6.09807 46.0735L5.91113 43.1914L24.3206 44.7151V47.7415L6.09807 46.0735Z" stroke="#00ADD4" stroke-width="1.36095"/>
<path d="M40.0618 40.378L41.7059 40.6816M43.3538 40.7209L41.7059 40.6816M41.7059 40.6816L41.8052 44.7181M45.6412 45.1146L45.6004 43.4591M45.6004 43.4591L45.5394 40.9767C47.5433 41.0819 48.1007 41.3186 48.1318 42.5833C48.1577 43.6354 47.7601 43.732 45.6004 43.4591ZM50.1806 41.4619C50.2657 44.9199 50.4764 45.6351 51.7325 45.6651C52.9886 45.695 53.1688 45.1536 53.0866 41.812" stroke="#00ADD4" stroke-width="1.36095" stroke-linecap="round"/>
</g>
<defs>
<clipPath id="clip0_1_6069">
<rect width="79" height="78.9992" fill="white" transform="translate(0.333008)"/>
</clipPath>
</defs>
</svg>
